name C:\Users\Nicos\Desktop\Gil_twoSteps\Study2\ExperimentalData\IK_Splined\twoSteps_IK_BSplines_200_meshInts_study2_p02_s_01_lowIK_modROI.mot
datacolumns 38
datarows 11
range 0.32800000 0.33376599
endheader
                time	         pelvis_tilt	         pelvis_list	     pelvis_rotation	           pelvis_tx	           pelvis_ty	           pelvis_tz	       hip_flexion_r	     hip_adduction_r	      hip_rotation_r	        knee_angle_r	       ankle_angle_r	    subtalar_angle_r	         mtp_angle_r	       hip_flexion_l	     hip_adduction_l	      hip_rotation_l	        knee_angle_l	       ankle_angle_l	    subtalar_angle_l	         mtp_angle_l	    lumbar_extension	      lumbar_bending	     lumbar_rotation	          arm_flex_r	           arm_add_r	           arm_rot_r	        elbow_flex_r	           pro_sup_r	        wrist_flex_r	         wrist_dev_r	          arm_flex_l	           arm_add_l	           arm_rot_l	        elbow_flex_l	           pro_sup_l	        wrist_flex_l	         wrist_dev_l	
          0.32800000	        -23.90386293	         -6.37876750	          9.46804195	         -1.36070109	          0.83287135	          0.29608066	         79.49364130	         -5.90582076	         -3.03655014	        -86.15188705	          5.84243809	        -23.61883138	          0.17782120	         -5.33359438	         -4.90050131	         10.00268127	        -37.52566613	        -33.62514195	          6.85090957	          6.80996349	        -21.33309382	         17.03275562	         -0.33179282	        -65.85686750	          7.89187850	        -31.54163302	         65.10507011	         72.01296457	         -3.60717198	          8.11920335	         31.24067613	         -6.62914469	         22.79999303	        139.51532458	         49.05117894	         -6.15731558	          5.23684281	
          0.32833801	        -23.85660743	         -6.32230148	          9.43607400	         -1.35901495	          0.83310163	          0.29608948	         79.25077940	         -5.90029318	         -3.00856522	        -86.02305794	          5.79599540	        -23.57586215	          0.21311393	         -5.25951937	         -4.82161720	          9.86770069	        -37.77194961	        -33.63321513	          7.00988157	          6.89521202	        -21.42439106	         16.98958455	         -0.37394042	        -65.65965830	          7.75612498	        -31.47479730	         65.17038670	         72.00693914	         -3.59752930	          8.13239450	         30.87497845	         -6.69822556	         22.62617688	        139.33843412	         49.05261358	         -6.19552301	          5.25805784	
          0.32940599	        -23.70723296	         -6.14722545	          9.33621265	         -1.35368740	          0.83382427	          0.29612045	         78.47920468	         -5.88399299	         -2.92517327	        -85.61140530	          5.66179296	        -23.43540499	          0.33148678	         -5.02166458	         -4.57951228	          9.43679339	        -38.55563137	        -33.65439524	          7.45847313	          7.15446500	        -21.71153533	         16.85506226	         -0.50891361	        -65.03408862	          7.32615715	        -31.25616987	         65.37822844	         71.98940092	         -3.56710021	          8.17403335	         29.72067756	         -6.91122770	         22.06682457	        138.76529158	         49.05220468	         -6.31614532	          5.32594454	
          0.33018000	        -23.59896613	         -6.02076446	          9.26398437	         -1.34982628	          0.83434738	          0.29614329	         77.91947121	         -5.87232781	         -2.86537574	        -85.31247576	          5.56612686	        -23.33301196	          0.41815067	         -4.84879566	         -4.40495672	          9.12393224	        -39.12430441	        -33.66919433	          7.77675042	          7.34107151	        -21.91947387	         16.75780740	         -0.60696445	        -64.58039581	          7.01440747	        -31.09677163	         65.52904759	         71.97688115	         -3.54505170	          8.20420583	         28.88425092	         -7.06492947	         21.66014261	        138.34809612	         49.05127908	         -6.40355330	          5.37525405	
          0.33018000	        -23.59896613	         -6.02076446	          9.26398437	         -1.34982628	          0.83434738	          0.29614329	         77.91947121	         -5.87232781	         -2.86537574	        -85.31247576	          5.56612686	        -23.33301196	          0.41815067	         -4.84879566	         -4.40495672	          9.12393224	        -39.12430441	        -33.66919433	          7.77675042	          7.34107151	        -21.91947387	         16.75780740	         -0.60696445	        -64.58039581	          7.01440747	        -31.09677163	         65.52904759	         71.97688115	         -3.54505170	          8.20420583	         28.88425092	         -7.06492947	         21.66014261	        138.34809612	         49.05127908	         -6.40355330	          5.37525405	
          0.33051801	        -23.55168593	         -5.96553886	          9.23244223	         -1.34814013	          0.83457581	          0.29615327	         77.67503523	         -5.86723362	         -2.83926212	        -85.18193303	          5.52434941	        -23.28829685	          0.45599686	         -4.77330368	         -4.32872819	          8.98730556	        -39.37264432	        -33.67565710	          7.91574233	          7.42256271	        -22.01028077	         16.71533613	         -0.64978332	        -64.38226785	          6.87826617	        -31.02716231	         65.59491042	         71.97141375	         -3.53542310	          8.21738217	         28.51898283	         -7.13205113	         21.48254432	        138.16590658	         49.05087487	         -6.44172442	          5.39678756	
          0.33158599	        -23.40244824	         -5.79536492	          9.13456520	         -1.34281314	          0.83528977	          0.29619115	         76.89722367	         -5.85230959	         -2.76312354	        -84.76423379	          5.41461349	        -23.14035564	          0.58440415	         -4.52959858	         -4.09746937	          8.55100777	        -40.16439942	        -33.68814261	          8.28420393	          7.66465131	        -22.29477260	         16.58305002	         -0.78703359	        -63.75226922	          6.44800771	        -30.79814040	         65.80371621	         71.95619028	         -3.50519538	          8.25878353	         27.36916516	         -7.33739990	         20.91035698	        137.56924492	         49.04283188	         -6.56172939	          5.46573912	
          0.33236000	        -23.29432311	         -5.67302414	          9.06403913	         -1.33895256	          0.83580541	          0.29622007	         76.33224629	         -5.84176268	         -2.70940628	        -84.46030484	          5.34019916	        -23.03160561	          0.67949553	         -4.35178390	         -3.93207002	          8.23374306	        -40.73985201	        -33.69536813	          8.53499859	          7.83656708	        -22.50040026	         16.48761429	         -0.88695546	        -63.29476285	          6.13615539	        -30.63007024	         65.95520940	         71.94562853	         -3.48333275	          8.28873598	         26.53682434	         -7.48467921	         20.49312802	        137.13198771	         49.03544797	         -6.64856445	          5.51592157	
          0.33236000	        -23.29432311	         -5.67302414	          9.06403913	         -1.33895256	          0.83580541	          0.29622007	         76.33224629	         -5.84176268	         -2.70940628	        -84.46030484	          5.34019916	        -23.03160561	          0.67949553	         -4.35178390	         -3.93207002	          8.23374306	        -40.73985201	        -33.69536813	          8.53499859	          7.83656708	        -22.50040026	         16.48761429	         -0.88695546	        -63.29476285	          6.13615539	        -30.63007024	         65.95520940	         71.94562853	         -3.48333275	          8.28873598	         26.53682434	         -7.48467921	         20.49312802	        137.13198771	         49.03544797	         -6.64856445	          5.51592157	
          0.33269801	        -23.24710479	         -5.61959783	          9.03324034	         -1.33726664	          0.83603060	          0.29623269	         76.08552028	         -5.83715684	         -2.68594792	        -84.32757886	          5.30770238	        -22.98411439	          0.72102200	         -4.27413211	         -3.85984001	          8.09519334	        -40.99115254	        -33.69852352	          8.64452079	          7.91164282	        -22.59019800	         16.44593744	         -0.93059141	        -63.09496951	          5.99996927	        -30.55667389	         66.02136658	         71.94101620	         -3.47378532	          8.30181623	         26.17334053	         -7.54899618	         20.31092385	        136.94103719	         49.03222341	         -6.68648539	          5.53783627	
          0.33376599	        -23.09821207	         -5.45582418	          8.93819771	         -1.33194085	          0.83673217	          0.29628137	         75.29953457	         -5.82379870	         -2.61918458	        -83.90249382	          5.23435387	        -22.82594267	          0.86253542	         -4.02259725	         -3.64301691	          7.65267363	        -41.79343524	        -33.69790027	          8.90738573	          8.12958741	        -22.87070521	         16.31617932	         -1.07055555	        -62.45858919	          5.57024426	        -30.31449189	         66.23052862	         71.92890165	         -3.44393064	          8.34277154	         25.03143978	         -7.74441863	         19.72352764	        136.31174423	         49.01391626	         -6.80532321	          5.60803338	
